<svg id="Layer_1" data-name="Layer 1" xmlns="http://www.w3.org/2000/svg" xmlns:xlink="http://www.w3.org/1999/xlink" viewBox="0 0 1920 1080"><defs><style>.cls-1{fill:url(#linear-gradient);}.cls-2{fill:url(#linear-gradient-2);}</style><linearGradient id="linear-gradient" x1="771.53" y1="376.43" x2="1299.25" y2="838.19" gradientUnits="userSpaceOnUse"><stop offset="0" stop-color="#dfbd69"/><stop offset="1" stop-color="#926f34"/></linearGradient><linearGradient id="linear-gradient-2" x1="790.54" y1="354.7" x2="1318.27" y2="816.46" xlink:href="#linear-gradient"/></defs><path class="cls-1" d="M960,729.8c104.82,0,189.8-85,189.8-189.8a189,189,0,0,0-45.37-123.14l-15.81,31.6-25,50.1,17.1,39.62,27.11-53.81a157.88,157.88,0,1,1-202-92.68V358.05A189.89,189.89,0,0,0,770.2,540C770.2,644.82,855.18,729.8,960,729.8Z"/><path class="cls-2" d="M973.88,445.49l72.25,161.27,19.23-38.16-17.15-39.3L984.87,384.09l-14.66-33.62c-3.38-.18-6.79-.27-10.21-.27q-9,0-17.79.83V648.85h31.67Z"/></svg>