<svg id="Layer_1" data-name="Layer 1" xmlns="http://www.w3.org/2000/svg" xmlns:xlink="http://www.w3.org/1999/xlink" viewBox="0 0 1920 1080"><defs><style>.cls-1{fill:url(#linear-gradient);}.cls-2{fill:url(#linear-gradient-2);}.cls-3{fill:url(#linear-gradient-3);}.cls-4{fill:url(#linear-gradient-4);}.cls-5{fill:url(#linear-gradient-5);}.cls-6{fill:url(#linear-gradient-6);}.cls-7{fill:url(#linear-gradient-7);}.cls-8{fill:url(#linear-gradient-8);}.cls-9{fill:url(#linear-gradient-9);}.cls-10{fill:url(#linear-gradient-10);}.cls-11{fill:url(#linear-gradient-11);}</style><linearGradient id="linear-gradient" x1="595.8" y1="618.36" x2="989.58" y2="962.92" gradientUnits="userSpaceOnUse"><stop offset="0" stop-color="#dfbd69"/><stop offset="1" stop-color="#926f34"/></linearGradient><linearGradient id="linear-gradient-2" x1="632.15" y1="576.81" x2="1025.94" y2="921.37" xlink:href="#linear-gradient"/><linearGradient id="linear-gradient-3" x1="670.54" y1="532.94" x2="1064.32" y2="877.5" xlink:href="#linear-gradient"/><linearGradient id="linear-gradient-4" x1="696.15" y1="503.67" x2="1089.93" y2="848.23" xlink:href="#linear-gradient"/><linearGradient id="linear-gradient-5" x1="714.75" y1="482.41" x2="1108.53" y2="826.97" xlink:href="#linear-gradient"/><linearGradient id="linear-gradient-6" x1="746.03" y1="446.66" x2="1139.81" y2="791.22" xlink:href="#linear-gradient"/><linearGradient id="linear-gradient-7" x1="776.12" y1="412.27" x2="1169.9" y2="756.83" xlink:href="#linear-gradient"/><linearGradient id="linear-gradient-8" x1="803.83" y1="380.6" x2="1197.62" y2="725.16" xlink:href="#linear-gradient"/><linearGradient id="linear-gradient-9" x1="830.59" y1="350.02" x2="1224.38" y2="694.58" xlink:href="#linear-gradient"/><linearGradient id="linear-gradient-10" x1="819.13" y1="363.12" x2="1212.91" y2="707.68" xlink:href="#linear-gradient"/><linearGradient id="linear-gradient-11" x1="833.31" y1="346.91" x2="1227.1" y2="691.47" xlink:href="#linear-gradient"/></defs><path class="cls-1" d="M727.53,704.09a30.11,30.11,0,0,1-9.91,22.78,33.14,33.14,0,0,1-23.54,9.24q-14.4,0-23.93-8.67-9.81-8.87-9.81-23.07a30.33,30.33,0,0,1,9.91-23,33.68,33.68,0,0,1,23.83-9.15q14.29,0,23.83,9T727.53,704.09Zm-9.43,1.62q0-13.53-7.44-21.45-7-7.53-18.77-7.53A20.13,20.13,0,0,0,676,683.88q-6.25,7.15-6.25,18.59,0,13.72,7.25,21.63,7.05,7.64,19.06,7.63a19.91,19.91,0,0,0,15.87-7.2Q718.1,717.33,718.1,705.71Z"/><path class="cls-2" d="M777.86,734.68q-3.52-5.52-25.74-39.74l.1,24v7.24a11,11,0,0,0,1.38,6,5.37,5.37,0,0,0,3.86,2.52v.1H741.64v-.1a5.37,5.37,0,0,0,3.86-2.52,11,11,0,0,0,1.38-6v-8.39l.29-35c0-4.13-.07-7.18-.19-9.15h.28l33.17,47.66q6.3-8.87,34-47.18v.09h.09l-.09.19.09,51.57a10.88,10.88,0,0,0,1.39,6,5.35,5.35,0,0,0,3.86,2.52v.1l-8.3-.1h-1.62q-3.81,0-8.86.1v-.1a5.54,5.54,0,0,0,3.91-2.52,10.25,10.25,0,0,0,1.33-6l-.38-32.31-28,41v.1h-.1v-.1Z"/><path class="cls-3" d="M899.1,674a5.35,5.35,0,0,0-3.86,2.52,10.88,10.88,0,0,0-1.39,6l.19,33.84q0,10.58.29,17.06a3.73,3.73,0,0,1-.57,2.38h-.86q-8.67-8.87-48.32-45.84L844.29,719v7.24a11,11,0,0,0,1.38,6,5.37,5.37,0,0,0,3.86,2.52v.1H833.71v-.1a5.37,5.37,0,0,0,3.86-2.52,11,11,0,0,0,1.38-6v-8.39l.29-35q0-6.2-.19-9.15h.28l47.85,43.47c.51.57.86.85,1.05.85s.38-.41.38-1.24l-.09-34.31a11,11,0,0,0-1.39-6,5.35,5.35,0,0,0-3.86-2.52v-.1H899.1Z"/><path class="cls-4" d="M936.55,673.11a7.61,7.61,0,0,0-4.29,1.57,14,14,0,0,0-3,3.48V726.1a7,7,0,0,0,1.42,4.48A8.91,8.91,0,0,0,933,733a8.74,8.74,0,0,0,3.33,1.39c.13.12.16.22.1.28a5,5,0,0,1-2.38.19,189.34,189.34,0,0,0-19,0,2.5,2.5,0,0,1-1.91-.38,9.08,9.08,0,0,0,5.48-2.33,7,7,0,0,0,2.43-4.82V681.12a7,7,0,0,0-.76-3.34,10.47,10.47,0,0,0-2.05-3.29,3.8,3.8,0,0,0-2.81-1.38q.76-.2,10.77-.24T936.55,673.11Z"/><path class="cls-5" d="M985.07,709.52a15,15,0,0,1,4.48,9.72,13.75,13.75,0,0,1-.24,4,11.62,11.62,0,0,1-1.76,4.33,26.17,26.17,0,0,1-3.15,4,9.15,9.15,0,0,1-3.14,2.38q-5.93,3.15-15.06,2.38-11.25-.94-14.68-4.48v-12.2a4.24,4.24,0,0,1,.38.48q3.52,6.2,7.34,9a17.06,17.06,0,0,0,9,3.24q9.63.86,12.49-4.48a5.9,5.9,0,0,1,.48-1.14,11.61,11.61,0,0,0,.66-3.53,9.78,9.78,0,0,0-2.48-7.15q-2.67-3-11-8.39-10.49-6.86-13.91-10.48A14.28,14.28,0,0,1,951,686.45a13.43,13.43,0,0,1,6.05-10.53q5.67-4,14.16-3.38A37.56,37.56,0,0,1,981.92,675q4.38,1.8,4.1,3.24c.06.57.13,4.16.19,10.77q.57.94-1.86-2.77a27.13,27.13,0,0,0-6-6.48,15.56,15.56,0,0,0-8.77-2.95,12.11,12.11,0,0,0-7.87,1.62,7.58,7.58,0,0,0-3.28,6.19A9.83,9.83,0,0,0,961,691.7c1.65,1.9,4.8,4.29,9.44,7.14Q981.07,705.23,985.07,709.52Z"/><path class="cls-6" d="M1061.79,717.34c.26.19.39,1.71.39,4.57a58.29,58.29,0,0,1-.48,7.82,4.31,4.31,0,0,1-.29.66l-.47.48a16.74,16.74,0,0,1-5.44,2.76,49.66,49.66,0,0,1-16.58,2.39,33.72,33.72,0,0,1-23.73-9.06,30,30,0,0,1-10.2-22.78v-.09a30.16,30.16,0,0,1,10.2-22.78,33.72,33.72,0,0,1,23.73-9.06,49.66,49.66,0,0,1,16.58,2.39,16.74,16.74,0,0,1,5.44,2.76l.47.48a4.31,4.31,0,0,1,.29.66,58.29,58.29,0,0,1,.48,7.82c0,2.86-.13,4.38-.39,4.57h-.19a10.65,10.65,0,0,0-.95-2.76,14,14,0,0,0-2.33-3.34,28.34,28.34,0,0,0-4-3.48,31,31,0,0,0-5.81-3.28,24.3,24.3,0,0,0-9.92-1.72q-10.29,0-16.87,6.86-7.05,7.44-7,20.4v1q0,13,7,20.4,6.59,6.86,16.87,6.86a24.3,24.3,0,0,0,9.92-1.72,30.45,30.45,0,0,0,5.81-3.29,27.68,27.68,0,0,0,4-3.47,14,14,0,0,0,2.33-3.34,10.65,10.65,0,0,0,.95-2.76Z"/><path class="cls-7" d="M1143.38,704.09a30.11,30.11,0,0,1-9.91,22.78,33.14,33.14,0,0,1-23.54,9.24q-14.4,0-23.93-8.67-9.81-8.87-9.81-23.07a30.33,30.33,0,0,1,9.91-23,33.68,33.68,0,0,1,23.83-9.15q14.29,0,23.83,9T1143.38,704.09Zm-9.43,1.62q0-13.53-7.44-21.45-7-7.53-18.78-7.53a20.12,20.12,0,0,0-15.86,7.15q-6.25,7.15-6.25,18.59,0,13.72,7.25,21.63,7.05,7.64,19.06,7.63a19.91,19.91,0,0,0,15.87-7.2Q1134,717.33,1134,705.71Z"/><path class="cls-8" d="M1176.17,734.87l-8.29-.09h-2.1l-8.29.09v-.09c2.92-.38,4.64-2.61,5.15-6.67v-.39a8.26,8.26,0,0,0,.09-1.43l.1-43.55h-.1v-.1a11,11,0,0,0-1.38-6,5.37,5.37,0,0,0-3.86-2.52v-.1l23.83-.19q7.82.28,12.39,3.24,5.63,3.63,5.62,10.77,0,9.43-11.82,16.21a3.47,3.47,0,0,1-1,.66,13.22,13.22,0,0,1-1.28.53l-1.24.43-.86.28a11,11,0,0,1-1.72.38c-.76.13-2.16.26-4.19.39a29.71,29.71,0,0,0-6.48.38l.28,19.15a11,11,0,0,0,1.38,6,5.43,5.43,0,0,0,3.86,2.53v.09Zm13.63-46.51v-.1a14.51,14.51,0,0,0-.86-5.19,5.58,5.58,0,0,0-2.19-3v-.19q-3-2.77-9.82-2.77-5.43,0-5.81,1.62a3.77,3.77,0,0,0-.1,1l-.28,23.25h3.81a23,23,0,0,0,5.72-.66.2.2,0,0,0,.14,0,.2.2,0,0,1,.14-.05,11.09,11.09,0,0,0,5.63-3.34,14.79,14.79,0,0,0,3.71-10.19Z"/><path class="cls-9" d="M1256.9,735a16.33,16.33,0,0,1-2,.09q-7.25-.37-18.49-.38-8.21,0-22,.1v-.1a5.37,5.37,0,0,0,3.86-2.52,11,11,0,0,0,1.38-6l.1-43.46h-.1v-.1a11,11,0,0,0-1.38-6,5.37,5.37,0,0,0-3.86-2.52v-.1l17.44-.09q7.05,0,13.06-.19h.67c2.79-.07,5.4-.19,7.81-.38,2-.13,3.05,0,3.05.38v1.52l.1,8.29h-.1a4.6,4.6,0,0,0-1-2.19,6.27,6.27,0,0,0-2.48-1.67,20.44,20.44,0,0,0-4.57-1.14,71.71,71.71,0,0,0-7.34-.62q-4-.09-11.06-.09a2.93,2.93,0,0,0-2,.47,3.17,3.17,0,0,0-.19,1.43v19.45c0,.76.44,1.14,1.33,1.14q2.47,0,18,.1,3.81,0,5.53-1.77a7.56,7.56,0,0,0,2.09-4.24h.1q-.11,3.72.09,15.35h-.09a5.39,5.39,0,0,0-2.53-3.86,11,11,0,0,0-6-1.39q-6-.37-17.72-.28c-.58,0-.86.22-.86.67v20.3q0,4.29,5.05,5.33c.82.13,3.72.19,8.67.19a25.5,25.5,0,0,0,6.1-.66,27.72,27.72,0,0,0,8.44-3.58,8.73,8.73,0,0,0,3.48-4.43l.09.1-1.9,12.29-.1.57Z"/><path class="cls-10" d="M959.76,626.8a141.62,141.62,0,0,0,107.77-233.51l-11.79,23.58-18.69,37.39,12.76,29.56L1070,443.67a117.81,117.81,0,1,1-150.72-69.16v-25.1A141.65,141.65,0,0,0,959.76,626.8Z"/><path class="cls-11" d="M970.11,414.66,1024,535l14.35-28.47-12.79-29.33L978.32,368.83l-10.94-25.08q-3.78-.19-7.62-.2-6.72,0-13.27.62V566.4h23.62Z"/></svg>